<svg width="115" height="115" viewBox="0 0 115 115" fill="none" xmlns="http://www.w3.org/2000/svg">
<g id="CheckCircle" clip-path="url(#clip0_9_138)">
<path id="Vector" d="M57.4999 107.812C44.1562 107.812 31.359 102.512 21.9236 93.0763C12.4881 83.6409 7.18738 70.8437 7.18738 57.5C7.18738 44.1563 12.4881 31.3591 21.9236 21.9237C31.359 12.4883 44.1562 7.1875 57.4999 7.1875C70.8436 7.1875 83.6408 12.4883 93.0762 21.9237C102.512 31.3591 107.812 44.1563 107.812 57.5C107.812 70.8437 102.512 83.6409 93.0762 93.0763C83.6408 102.512 70.8436 107.812 57.4999 107.812ZM57.4999 115C72.7498 115 87.3752 108.942 98.1585 98.1586C108.942 87.3753 115 72.7499 115 57.5C115 42.25 108.942 27.6247 98.1585 16.8414C87.3752 6.05802 72.7498 0 57.4999 0C42.2499 0 27.6246 6.05802 16.8412 16.8414C6.0579 27.6247 -0.00012207 42.25 -0.00012207 57.5C-0.00012207 72.7499 6.0579 87.3753 16.8412 98.1586C27.6246 108.942 42.2499 115 57.4999 115Z" fill="#00FF38"/>
<path id="Vector_2" d="M78.8467 35.7219L78.703 35.88L53.7408 67.6847L38.6974 52.6341C37.6755 51.6819 36.3239 51.1635 34.9274 51.1881C33.5308 51.2128 32.1984 51.7785 31.2107 52.7662C30.2231 53.7538 29.6573 55.0863 29.6327 56.4828C29.608 57.8793 30.1264 59.2309 31.0786 60.2528L50.0967 79.2781C50.6091 79.7895 51.2192 80.1925 51.8906 80.463C52.5621 80.7335 53.2811 80.866 54.0049 80.8526C54.7287 80.8392 55.4423 80.6801 56.1033 80.3849C56.7643 80.0897 57.359 79.6644 57.8521 79.1344L86.5446 43.2687C87.5216 42.2433 88.0557 40.8746 88.0316 39.4584C88.0075 38.0423 87.4269 36.6925 86.4156 35.701C85.4042 34.7094 84.0432 34.1558 82.6269 34.1597C81.2105 34.1636 79.8526 34.7248 78.8467 35.7219Z" fill="#00FF38"/>
</g>
<defs>
<clipPath id="clip0_9_138">
<rect width="115" height="115" fill="white"/>
</clipPath>
</defs>
</svg>
