<svg width="52" height="52" viewBox="0 0 52 52" fill="none" xmlns="http://www.w3.org/2000/svg">
<g id="PersonFill">
<path id="Vector" d="M9.74994 45.5C9.74994 45.5 6.49994 45.5 6.49994 42.25C6.49994 39 9.74994 29.25 25.9999 29.25C42.2499 29.25 45.4999 39 45.4999 42.25C45.4999 45.5 42.2499 45.5 42.2499 45.5H9.74994ZM25.9999 26C28.5858 26 31.0658 24.9728 32.8942 23.1443C34.7227 21.3158 35.7499 18.8359 35.7499 16.25C35.7499 13.6641 34.7227 11.1842 32.8942 9.35571C31.0658 7.52723 28.5858 6.5 25.9999 6.5C23.4141 6.5 20.9341 7.52723 19.1056 9.35571C17.2772 11.1842 16.2499 13.6641 16.2499 16.25C16.2499 18.8359 17.2772 21.3158 19.1056 23.1443C20.9341 24.9728 23.4141 26 25.9999 26Z" fill="black"/>
</g>
</svg>
